# xmcd
#
# Track frame offsets:
#	150
#	23140
#	40252
#	65357
#	83025
#	107147
#	148782
#	169740
#
# Disc length: 2435 seconds
#
# Revision: 1
# Processed by: cddbd v1.5.2PL0 Copyright (c) Steve Scherf et al.
# Submitted via: audiograbber 1.83.01
#
DISCID=65098108
DTITLE=Baby Isaac - Live In The Studio
DYEAR=1900
DGENRE=
TTITLE0=Work Song
TTITLE1=Choo Choo
TTITLE2=Fine and Mellow
TTITLE3=Moonlight
TTITLE4=Help Me
TTITLE5=Long Way To Go
TTITLE6=Love In Vain
TTITLE7=Walkin
EXTD=
EXTT0=
EXTT1=
EXTT2=
EXTT3=
EXTT4=
EXTT5=
EXTT6=
EXTT7=
PLAYORDER=
